<svg xmlns="http://www.w3.org/2000/svg" width="664.641357421875" height="848.82958984375" viewBox="-221.73641967773438 -358.537353515625 664.641357421875 848.82958984375"><title>Neo4j Graph Visualization</title><desc>Created using Neo4j (http://www.neo4j.com/)</desc><g class="layer relationships"><g class="relationship" transform="translate(-6.615971610032081 153.31694342056056) rotate(282.1769051125319)"><path class="b-outline" fill="#A5ABB6" stroke="none" d="M 25 0.5 L 58.60643091208705 0.5 L 58.60643091208705 -0.5 L 25 -0.5 Z M 129.95408716208703 0.5 L 163.5605180741741 0.5 L 163.5605180741741 3.5 L 170.5605180741741 0 L 163.5605180741741 -3.5 L 163.5605180741741 -0.5 L 129.95408716208703 -0.5 Z"/><text text-anchor="middle" pointer-events="none" font-size="8px" fill="#000000" x="94.28025903708705" y="3" font-family="Helvetica Neue, Helvetica, Arial, sans-serif">GRANT_ACCESS</text></g><g class="relationship" transform="translate(-6.615971610032081 153.31694342056056) rotate(310.8070914619775)"><path class="b-outline" fill="#A5ABB6" stroke="none" d="M 25 0.5 L 63.62136630421155 0.5 L 63.62136630421155 -0.5 L 25 -0.5 Z M 134.96902255421156 0.5 L 173.5903888584231 0.5 L 173.5903888584231 3.5 L 180.5903888584231 0 L 173.5903888584231 -3.5 L 173.5903888584231 -0.5 L 134.96902255421156 -0.5 Z"/><text text-anchor="middle" pointer-events="none" font-size="8px" fill="#000000" x="99.29519442921155" y="3" font-family="Helvetica Neue, Helvetica, Arial, sans-serif">GRANT_ACCESS</text></g><g class="relationship" transform="translate(81.76457983600939 107.48320272267759) rotate(241.05660817143234)"><path class="b-outline" fill="#A5ABB6" stroke="none" d="M 25 0.5 L 83.27647746357562 0.5 L 83.27647746357562 -0.5 L 25 -0.5 Z M 154.62413371357562 0.5 L 212.90061117715123 0.5 L 212.90061117715123 3.5 L 219.90061117715123 0 L 212.90061117715123 -3.5 L 212.90061117715123 -0.5 L 154.62413371357562 -0.5 Z"/><text text-anchor="middle" pointer-events="none" font-size="8px" fill="#000000" x="118.95030558857562" y="3" transform="rotate(180 118.95030558857562 0)" font-family="Helvetica Neue, Helvetica, Arial, sans-serif">GRANT_ACCESS</text></g><g class="relationship" transform="translate(81.76457983600939 107.48320272267759) rotate(252.03165258539036)"><path class="b-outline" fill="#A5ABB6" stroke="none" d="M 25 0.5 L 37.21532373539367 0.5 L 37.21532373539367 -0.5 L 25 -0.5 Z M 108.56297998539367 0.5 L 120.77830372078733 0.5 L 120.77830372078733 3.5 L 127.77830372078733 0 L 120.77830372078733 -3.5 L 120.77830372078733 -0.5 L 108.56297998539367 -0.5 Z"/><text text-anchor="middle" pointer-events="none" font-size="8px" fill="#000000" x="72.88915186039367" y="3" transform="rotate(180 72.88915186039367 0)" font-family="Helvetica Neue, Helvetica, Arial, sans-serif">GRANT_ACCESS</text></g><g class="relationship" transform="translate(308.5383191380391 0.04575314139733418) rotate(257.2707210938185)"><path class="b-outline" fill="#A5ABB6" stroke="none" d="M 25 0.5 L 67.27363159929571 0.5 L 67.27363159929571 -0.5 L 25 -0.5 Z M 138.6212878492957 0.5 L 180.89491944859142 0.5 L 180.89491944859142 3.5 L 187.89491944859142 0 L 180.89491944859142 -3.5 L 180.89491944859142 -0.5 L 138.6212878492957 -0.5 Z"/><text text-anchor="middle" pointer-events="none" font-size="8px" fill="#000000" x="102.94745972429571" y="3" transform="rotate(180 102.94745972429571 0)" font-family="Helvetica Neue, Helvetica, Arial, sans-serif">GRANT_ACCESS</text></g><g class="relationship" transform="translate(308.5383191380391 0.04575314139733418) rotate(180.7424949614654)"><path class="b-outline" fill="#A5ABB6" stroke="none" d="M 25 0.5 L 51.23277968337955 0.5 L 51.23277968337955 -0.5 L 25 -0.5 Z M 122.58043593337955 0.5 L 148.8132156167591 0.5 L 148.8132156167591 3.5 L 155.8132156167591 0 L 148.8132156167591 -3.5 L 148.8132156167591 -0.5 L 122.58043593337955 -0.5 Z"/><text text-anchor="middle" pointer-events="none" font-size="8px" fill="#000000" x="86.90660780837955" y="3" transform="rotate(180 86.90660780837955 0)" font-family="Helvetica Neue, Helvetica, Arial, sans-serif">GRANT_ACCESS</text></g><g class="relationship selected" transform="translate(141.49253800170058 -162.90301623392844) rotate(339.5850707639572)"><path class="b-outline" fill="#A5ABB6" stroke="none" d="M 25 0.5 L 26.255501141116383 0.5 L 26.255501141116383 -0.5 L 25 -0.5 Z M 94.93128239111638 0.5 L 96.18678353223277 0.5 L 96.18678353223277 3.5 L 103.18678353223277 0 L 96.18678353223277 -3.5 L 96.18678353223277 -0.5 L 94.93128239111638 -0.5 Z"/><text text-anchor="middle" pointer-events="none" font-size="8px" fill="#000000" x="60.59339176611638" y="3" font-family="Helvetica Neue, Helvetica, Arial, sans-serif">GRANT_ACCE…</text></g><g class="relationship" transform="translate(141.49253800170058 -162.90301623392844) rotate(522.5370725171309)"><path class="b-outline" fill="#A5ABB6" stroke="none" d="M 25 0.5 L 54.255427120203294 0.5 L 54.255427120203294 -0.5 L 25 -0.5 Z M 125.6030833702033 0.5 L 154.8585104904066 0.5 L 154.8585104904066 3.5 L 161.8585104904066 0 L 154.8585104904066 -3.5 L 154.8585104904066 -0.5 L 125.6030833702033 -0.5 Z"/><text text-anchor="middle" pointer-events="none" font-size="8px" fill="#000000" x="89.9292552452033" y="3" transform="rotate(180 89.9292552452033 0)" font-family="Helvetica Neue, Helvetica, Arial, sans-serif">GRANT_ACCESS</text></g><g class="relationship" transform="translate(141.49253800170058 -162.90301623392844) rotate(255.25761744488614)"><path class="b-outline" fill="#A5ABB6" stroke="none" d="M 25 0.5 L 46.97953015501429 0.5 L 46.97953015501429 -0.5 L 25 -0.5 Z M 118.32718640501429 0.5 L 140.30671656002858 0.5 L 140.30671656002858 3.5 L 147.30671656002858 0 L 140.30671656002858 -3.5 L 140.30671656002858 -0.5 L 118.32718640501429 -0.5 Z"/><text text-anchor="middle" pointer-events="none" font-size="8px" fill="#000000" x="82.65335828001429" y="3" transform="rotate(180 82.65335828001429 0)" font-family="Helvetica Neue, Helvetica, Arial, sans-serif">GRANT_ACCESS</text></g><g class="relationship" transform="translate(141.49253800170058 -162.90301623392844) rotate(490.5127106916639)"><path class="b-outline" fill="#A5ABB6" stroke="none" d="M 25 0.5 L 43.07372577547679 0.5 L 43.07372577547679 -0.5 L 25 -0.5 Z M 114.42138202547679 0.5 L 132.49510780095358 0.5 L 132.49510780095358 3.5 L 139.49510780095358 0 L 132.49510780095358 -3.5 L 132.49510780095358 -0.5 L 114.42138202547679 -0.5 Z"/><text text-anchor="middle" pointer-events="none" font-size="8px" fill="#000000" x="78.74755390047679" y="3" transform="rotate(180 78.74755390047679 0)" font-family="Helvetica Neue, Helvetica, Arial, sans-serif">GRANT_ACCESS</text></g><g class="relationship" transform="translate(141.49253800170058 -162.90301623392844) rotate(454.8941524718498)"><path class="b-outline" fill="#A5ABB6" stroke="none" d="M 25 0.5 L 41.42286663378647 0.5 L 41.42286663378647 -0.5 L 25 -0.5 Z M 112.77052288378647 0.5 L 129.19338951757294 0.5 L 129.19338951757294 3.5 L 136.19338951757294 0 L 129.19338951757294 -3.5 L 129.19338951757294 -0.5 L 112.77052288378647 -0.5 Z"/><text text-anchor="middle" pointer-events="none" font-size="8px" fill="#000000" x="77.09669475878647" y="3" transform="rotate(180 77.09669475878647 0)" font-family="Helvetica Neue, Helvetica, Arial, sans-serif">GRANT_ACCESS</text></g><g class="relationship" transform="translate(-95.4830578606164 -22.68990446319036) rotate(353.35710610909246)"><path class="b-outline" fill="#A5ABB6" stroke="none" d="M 25 0.5 L 26.32430895845721 0.5 L 26.32430895845721 -0.5 L 25 -0.5 Z M 97.67196520845721 0.5 L 98.99627416691442 0.5 L 98.99627416691442 3.5 L 105.99627416691442 0 L 98.99627416691442 -3.5 L 98.99627416691442 -0.5 L 97.67196520845721 -0.5 Z"/><text text-anchor="middle" pointer-events="none" font-size="8px" fill="#000000" x="61.99813708345721" y="3" font-family="Helvetica Neue, Helvetica, Arial, sans-serif">GRANT_ACCESS</text></g><g class="relationship" transform="translate(-95.4830578606164 -22.68990446319036) rotate(365.21976704521893)"><path class="b-outline" fill="#A5ABB6" stroke="none" d="M 25 0.5 L 72.90261673339356 0.5 L 72.90261673339356 -0.5 L 25 -0.5 Z M 144.25027298339356 0.5 L 192.15288971678712 0.5 L 192.15288971678712 3.5 L 199.15288971678712 0 L 192.15288971678712 -3.5 L 192.15288971678712 -0.5 L 144.25027298339356 -0.5 Z"/><text text-anchor="middle" pointer-events="none" font-size="8px" fill="#000000" x="108.57644485839356" y="3" font-family="Helvetica Neue, Helvetica, Arial, sans-serif">GRANT_ACCESS</text></g><g class="relationship" transform="translate(-192.73641767538717 -39.37351605387613) rotate(336.6136996805461)"><path class="b-outline" fill="#A5ABB6" stroke="none" d="M 25 0.5 L 45.79788967083594 0.5 L 45.79788967083594 -0.5 L 25 -0.5 Z M 117.14554592083594 0.5 L 137.94343559167189 0.5 L 137.94343559167189 3.5 L 144.94343559167189 0 L 137.94343559167189 -3.5 L 137.94343559167189 -0.5 L 117.14554592083594 -0.5 Z"/><text text-anchor="middle" pointer-events="none" font-size="8px" fill="#000000" x="81.47171779583594" y="3" font-family="Helvetica Neue, Helvetica, Arial, sans-serif">GRANT_ACCESS</text></g><g class="relationship" transform="translate(-192.73641767538717 -39.37351605387613) rotate(360.3855083286784)"><path class="b-outline" fill="#A5ABB6" stroke="none" d="M 25 0.5 L 74.5138366207677 0.5 L 74.5138366207677 -0.5 L 25 -0.5 Z M 145.8614928707677 0.5 L 195.3753294915354 0.5 L 195.3753294915354 3.5 L 202.3753294915354 0 L 195.3753294915354 -3.5 L 195.3753294915354 -0.5 L 145.8614928707677 -0.5 Z"/><text text-anchor="middle" pointer-events="none" font-size="8px" fill="#000000" x="110.1876647457677" y="3" font-family="Helvetica Neue, Helvetica, Arial, sans-serif">GRANT_ACCESS</text></g><g class="relationship" transform="translate(260.824472916998 -86.83021764935559) rotate(270.38117833239505)"><path class="b-outline" fill="#A5ABB6" stroke="none" d="M 25 0.5 L 25.22463100433081 0.5 L 25.22463100433081 -0.5 L 25 -0.5 Z M 88.5644747543308 0.5 L 88.78910575866162 0.5 L 88.78910575866162 3.5 L 95.78910575866162 0 L 88.78910575866162 -3.5 L 88.78910575866162 -0.5 L 88.5644747543308 -0.5 Z"/><text text-anchor="middle" pointer-events="none" font-size="8px" fill="#000000" x="56.89455287933081" y="3" font-family="Helvetica Neue, Helvetica, Arial, sans-serif">GRANT_ACC…</text></g><g class="relationship" transform="translate(260.824472916998 -86.83021764935559) rotate(507.57696027721465)"><path class="b-outline" fill="#A5ABB6" stroke="none" d="M 25 0.5 L 39.65701748232071 0.5 L 39.65701748232071 -0.5 L 25 -0.5 Z M 111.00467373232071 0.5 L 125.66169121464142 0.5 L 125.66169121464142 3.5 L 132.66169121464142 0 L 125.66169121464142 -3.5 L 125.66169121464142 -0.5 L 111.00467373232071 -0.5 Z"/><text text-anchor="middle" pointer-events="none" font-size="8px" fill="#000000" x="75.33084560732071" y="3" transform="rotate(180 75.33084560732071 0)" font-family="Helvetica Neue, Helvetica, Arial, sans-serif">GRANT_ACCESS</text></g><g class="relationship" transform="translate(51.43250179893007 -204.36337224529223) rotate(359.113281794504)"><path class="b-outline" fill="#A5ABB6" stroke="none" d="M 25 0.5 L 65.93653568252758 0.5 L 65.93653568252758 -0.5 L 25 -0.5 Z M 137.28419193252756 0.5 L 178.22072761505515 0.5 L 178.22072761505515 3.5 L 185.22072761505515 0 L 178.22072761505515 -3.5 L 178.22072761505515 -0.5 L 137.28419193252756 -0.5 Z"/><text text-anchor="middle" pointer-events="none" font-size="8px" fill="#000000" x="101.61036380752758" y="3" font-family="Helvetica Neue, Helvetica, Arial, sans-serif">GRANT_ACCESS</text></g><g class="relationship" transform="translate(51.43250179893007 -204.36337224529223) rotate(492.1185102226153)"><path class="b-outline" fill="#A5ABB6" stroke="none" d="M 25 0.5 L 26.57154579462963 0.5 L 26.57154579462963 -0.5 L 25 -0.5 Z M 97.91920204462963 0.5 L 99.49074783925926 0.5 L 99.49074783925926 3.5 L 106.49074783925926 0 L 99.49074783925926 -3.5 L 99.49074783925926 -0.5 L 97.91920204462963 -0.5 Z"/><text text-anchor="middle" pointer-events="none" font-size="8px" fill="#000000" x="62.24537391962963" y="3" transform="rotate(180 62.24537391962963 0)" font-family="Helvetica Neue, Helvetica, Arial, sans-serif">GRANT_ACCESS</text></g><g class="relationship" transform="translate(51.43250179893007 -204.36337224529223) rotate(290.2634727440529)"><path class="b-outline" fill="#A5ABB6" stroke="none" d="M 25 0.5 L 27.542226372026633 0.5 L 27.542226372026633 -0.5 L 25 -0.5 Z M 98.88988262202663 0.5 L 101.43210899405327 0.5 L 101.43210899405327 3.5 L 108.43210899405327 0 L 101.43210899405327 -3.5 L 101.43210899405327 -0.5 L 98.88988262202663 -0.5 Z"/><text text-anchor="middle" pointer-events="none" font-size="8px" fill="#000000" x="63.21605449702663" y="3" font-family="Helvetica Neue, Helvetica, Arial, sans-serif">GRANT_ACCESS</text></g><g class="relationship" transform="translate(51.43250179893007 -204.36337224529223) rotate(455.76058749300296)"><path class="b-outline" fill="#A5ABB6" stroke="none" d="M 25 0.5 L 44.50862651615108 0.5 L 44.50862651615108 -0.5 L 25 -0.5 Z M 115.85628276615108 0.5 L 135.36490928230216 0.5 L 135.36490928230216 3.5 L 142.36490928230216 0 L 135.36490928230216 -3.5 L 135.36490928230216 -0.5 L 115.85628276615108 -0.5 Z"/><text text-anchor="middle" pointer-events="none" font-size="8px" fill="#000000" x="80.18245464115108" y="3" transform="rotate(180 80.18245464115108 0)" font-family="Helvetica Neue, Helvetica, Arial, sans-serif">GRANT_ACCESS</text></g><g class="relationship" transform="translate(51.43250179893007 -204.36337224529223) rotate(429.31156540944954)"><path class="b-outline" fill="#A5ABB6" stroke="none" d="M 25 0.5 L 68.82334859716262 0.5 L 68.82334859716262 -0.5 L 25 -0.5 Z M 140.17100484716264 0.5 L 183.99435344432524 0.5 L 183.99435344432524 3.5 L 190.99435344432524 0 L 183.99435344432524 -3.5 L 183.99435344432524 -0.5 L 140.17100484716264 -0.5 Z"/><text text-anchor="middle" pointer-events="none" font-size="8px" fill="#000000" x="104.49717672216262" y="3" font-family="Helvetica Neue, Helvetica, Arial, sans-serif">GRANT_ACCESS</text></g><g class="relationship" transform="translate(-192.15324262673812 84.90776972861057) rotate(311.93783058821225)"><path class="b-outline" fill="#A5ABB6" stroke="none" d="M 25 0.5 L 38.77598465412501 0.5 L 38.77598465412501 -0.5 L 25 -0.5 Z M 98.86973465412501 0.5 L 112.64571930825002 0.5 L 112.64571930825002 3.5 L 119.64571930825002 0 L 112.64571930825002 -3.5 L 112.64571930825002 -0.5 L 98.86973465412501 -0.5 Z"/><text text-anchor="middle" pointer-events="none" font-size="8px" fill="#000000" x="68.82285965412501" y="3" font-family="Helvetica Neue, Helvetica, Arial, sans-serif">BELONGS_TO</text></g><g class="relationship" transform="translate(-192.15324262673812 84.90776972861057) rotate(380.23936059649077)"><path class="b-outline" fill="#A5ABB6" stroke="none" d="M 25 0.5 L 65.32664772163413 0.5 L 65.32664772163413 -0.5 L 25 -0.5 Z M 125.42039772163413 0.5 L 165.74704544326826 0.5 L 165.74704544326826 3.5 L 172.74704544326826 0 L 165.74704544326826 -3.5 L 165.74704544326826 -0.5 L 125.42039772163413 -0.5 Z"/><text text-anchor="middle" pointer-events="none" font-size="8px" fill="#000000" x="95.37352272163413" y="3" font-family="Helvetica Neue, Helvetica, Arial, sans-serif">BELONGS_TO</text></g><g class="relationship" transform="translate(-165.5095604677324 180.39453985835704) rotate(289.02494638923463)"><path class="b-outline" fill="#A5ABB6" stroke="none" d="M 25 0.5 L 73.86239204988739 0.5 L 73.86239204988739 -0.5 L 25 -0.5 Z M 133.95614204988738 0.5 L 182.81853409977478 0.5 L 182.81853409977478 3.5 L 189.81853409977478 0 L 182.81853409977478 -3.5 L 182.81853409977478 -0.5 L 133.95614204988738 -0.5 Z"/><text text-anchor="middle" pointer-events="none" font-size="8px" fill="#000000" x="103.90926704988739" y="3" font-family="Helvetica Neue, Helvetica, Arial, sans-serif">BELONGS_TO</text></g><g class="relationship" transform="translate(-165.5095604677324 180.39453985835704) rotate(350.3289355798786)"><path class="b-outline" fill="#A5ABB6" stroke="none" d="M 25 0.5 L 47.045259865829294 0.5 L 47.045259865829294 -0.5 L 25 -0.5 Z M 107.1390098658293 0.5 L 129.1842697316586 0.5 L 129.1842697316586 3.5 L 136.1842697316586 0 L 129.1842697316586 -3.5 L 129.1842697316586 -0.5 L 107.1390098658293 -0.5 Z"/><text text-anchor="middle" pointer-events="none" font-size="8px" fill="#000000" x="77.0921348658293" y="3" font-family="Helvetica Neue, Helvetica, Arial, sans-serif">BELONGS_TO</text></g><g class="relationship" transform="translate(-22.75586212616007 43.281958600630574) rotate(205.9320002005087)"><path class="b-outline" fill="#A5ABB6" stroke="none" d="M 25 0.5 L 60.95883482113419 0.5 L 60.95883482113419 -0.5 L 25 -0.5 Z M 121.05258482113419 0.5 L 157.01141964226838 0.5 L 157.01141964226838 3.5 L 164.01141964226838 0 L 157.01141964226838 -3.5 L 157.01141964226838 -0.5 L 121.05258482113419 -0.5 Z"/><text text-anchor="middle" pointer-events="none" font-size="8px" fill="#000000" x="91.00570982113419" y="3" transform="rotate(180 91.00570982113419 0)" font-family="Helvetica Neue, Helvetica, Arial, sans-serif">BELONGS_TO</text></g><g class="relationship" transform="translate(-22.75586212616007 43.281958600630574) rotate(391.5601520813153)"><path class="b-outline" fill="#A5ABB6" stroke="none" d="M 25 0.5 L 27.78485115943952 0.5 L 27.78485115943952 -0.5 L 25 -0.5 Z M 87.87860115943951 0.5 L 90.66345231887904 0.5 L 90.66345231887904 3.5 L 97.66345231887904 0 L 90.66345231887904 -3.5 L 90.66345231887904 -0.5 L 87.87860115943951 -0.5 Z"/><text text-anchor="middle" pointer-events="none" font-size="8px" fill="#000000" x="57.83172615943952" y="3" font-family="Helvetica Neue, Helvetica, Arial, sans-serif">BELONGS_TO</text></g><g class="relationship" transform="translate(-96.08552521195688 110.15090134655293) rotate(237.12182967458568)"><path class="b-outline" fill="#A5ABB6" stroke="none" d="M 25 0.5 L 55.47411467787779 0.5 L 55.47411467787779 -0.5 L 25 -0.5 Z M 115.5678646778778 0.5 L 146.0419793557556 0.5 L 146.0419793557556 3.5 L 153.0419793557556 0 L 146.0419793557556 -3.5 L 146.0419793557556 -0.5 L 115.5678646778778 -0.5 Z"/><text text-anchor="middle" pointer-events="none" font-size="8px" fill="#000000" x="85.5209896778778" y="3" transform="rotate(180 85.5209896778778 0)" font-family="Helvetica Neue, Helvetica, Arial, sans-serif">BELONGS_TO</text></g><g class="relationship" transform="translate(-96.08552521195688 110.15090134655293) rotate(359.1406448113619)"><path class="b-outline" fill="#A5ABB6" stroke="none" d="M 25 0.5 L 55.38818063263632 0.5 L 55.38818063263632 -0.5 L 25 -0.5 Z M 115.48193063263632 0.5 L 145.87011126527264 0.5 L 145.87011126527264 3.5 L 152.87011126527264 0 L 145.87011126527264 -3.5 L 145.87011126527264 -0.5 L 115.48193063263632 -0.5 Z"/><text text-anchor="middle" pointer-events="none" font-size="8px" fill="#000000" x="85.43505563263632" y="3" font-family="Helvetica Neue, Helvetica, Arial, sans-serif">BELONGS_TO</text></g><g class="relationship" transform="translate(413.90497610060476 -100.133733386752) rotate(535.0331688235915)"><path class="b-outline" fill="#A5ABB6" stroke="none" d="M 25 0.5 L 43.281869597841435 0.5 L 43.281869597841435 -0.5 L 25 -0.5 Z M 103.37561959784144 0.5 L 121.65748919568287 0.5 L 121.65748919568287 3.5 L 128.65748919568287 0 L 121.65748919568287 -3.5 L 121.65748919568287 -0.5 L 103.37561959784144 -0.5 Z"/><text text-anchor="middle" pointer-events="none" font-size="8px" fill="#000000" x="73.32874459784144" y="3" transform="rotate(180 73.32874459784144 0)" font-family="Helvetica Neue, Helvetica, Arial, sans-serif">BELONGS_TO</text></g><g class="relationship" transform="translate(413.90497610060476 -100.133733386752) rotate(496.44561167902515)"><path class="b-outline" fill="#A5ABB6" stroke="none" d="M 25 0.5 L 39.14779798315371 0.5 L 39.14779798315371 -0.5 L 25 -0.5 Z M 99.24154798315371 0.5 L 113.38934596630742 0.5 L 113.38934596630742 3.5 L 120.38934596630742 0 L 113.38934596630742 -3.5 L 113.38934596630742 -0.5 L 99.24154798315371 -0.5 Z"/><text text-anchor="middle" pointer-events="none" font-size="8px" fill="#000000" x="69.19467298315371" y="3" transform="rotate(180 69.19467298315371 0)" font-family="Helvetica Neue, Helvetica, Arial, sans-serif">BELONGS_TO</text></g></g><g class="layer nodes"><g class="node" aria-label="graph-node0" transform="translate(-6.615971610032081,153.31694342056056)" style="touch-action: none; -webkit-tap-highlight-color: rgba(0, 0, 0, 0);"><circle class="b-outline" cx="0" cy="0" r="25" fill="#C990C0" stroke="#b261a5" stroke-width="2px"/><text class="caption" text-anchor="middle" pointer-events="none" x="0" y="5" font-size="10px" fill="#FFFFFF" font-family="Helvetica Neue, Helvetica, Arial, sans-serif"> IT</text></g><g class="node" aria-label="graph-node9" transform="translate(34.633765055486755,-37.84365778812137)" style="touch-action: none; -webkit-tap-highlight-color: rgba(0, 0, 0, 0);"><circle class="b-outline" cx="0" cy="0" r="25" fill="#F79767" stroke="#f36924" stroke-width="2px"/><text class="caption" text-anchor="middle" pointer-events="none" x="0" y="5" font-size="10px" fill="#FFFFFF" font-family="Helvetica Neue, Helvetica, Arial, sans-serif"> 102</text></g><g class="node" aria-label="graph-node8" transform="translate(127.74028576131197,-2.2973364387209463)" style="touch-action: none; -webkit-tap-highlight-color: rgba(0, 0, 0, 0);"><circle class="b-outline" cx="0" cy="0" r="25" fill="#F79767" stroke="#f36924" stroke-width="2px"/><text class="caption" text-anchor="middle" pointer-events="none" x="0" y="5" font-size="10px" fill="#FFFFFF" font-family="Helvetica Neue, Helvetica, Arial, sans-serif"> 101</text></g><g class="node" aria-label="graph-node1" transform="translate(81.76457983600939,107.48320272267759)" style="touch-action: none; -webkit-tap-highlight-color: rgba(0, 0, 0, 0);"><circle class="b-outline" cx="0" cy="0" r="25" fill="#C990C0" stroke="#b261a5" stroke-width="2px"/><text class="caption" text-anchor="middle" pointer-events="none" x="0" y="5" font-size="10px" fill="#FFFFFF" font-family="Helvetica Neue, Helvetica, Arial, sans-serif"> Sales</text></g><g class="node" aria-label="graph-node11" transform="translate(-36.75391021009035,-106.82889883048895)" style="touch-action: none; -webkit-tap-highlight-color: rgba(0, 0, 0, 0);"><circle class="b-outline" cx="0" cy="0" r="25" fill="#F79767" stroke="#f36924" stroke-width="2px"/><text class="caption" text-anchor="middle" pointer-events="none" x="0" y="5" font-size="10px" fill="#FFFFFF" font-family="Helvetica Neue, Helvetica, Arial, sans-serif"> Auditori…</text></g><g class="node" aria-label="graph-node2" transform="translate(308.5383191380391,0.04575314139733418)" style="touch-action: none; -webkit-tap-highlight-color: rgba(0, 0, 0, 0);"><circle class="b-outline" cx="0" cy="0" r="25" fill="#C990C0" stroke="#b261a5" stroke-width="2px"/><text class="caption" text-anchor="middle" pointer-events="none" x="0" y="5" font-size="10px" fill="#FFFFFF" font-family="Helvetica Neue, Helvetica, Arial, sans-serif"> Administ…</text></g><g class="node" aria-label="graph-node12" transform="translate(261.62805479787863,-207.6166503565842)" style="touch-action: none; -webkit-tap-highlight-color: rgba(0, 0, 0, 0);"><circle class="b-outline" cx="0" cy="0" r="25" fill="#F79767" stroke="#f36924" stroke-width="2px"/><text class="caption" text-anchor="middle" pointer-events="none" x="0" y="5" font-size="10px" fill="#FFFFFF" font-family="Helvetica Neue, Helvetica, Arial, sans-serif"> Admin</text></g><g class="node" aria-label="graph-node3" transform="translate(141.49253800170058,-162.90301623392844)" style="touch-action: none; -webkit-tap-highlight-color: rgba(0, 0, 0, 0);"><circle class="b-outline" cx="0" cy="0" r="25" fill="#C990C0" stroke="#b261a5" stroke-width="2px"/><text class="caption" text-anchor="middle" pointer-events="none" x="0" y="5" font-size="10px" fill="#FFFFFF" font-family="Helvetica Neue, Helvetica, Arial, sans-serif"> Operatio…</text></g><g class="node" aria-label="graph-node10" transform="translate(97.6450658403966,-329.5373577027916)" style="touch-action: none; -webkit-tap-highlight-color: rgba(0, 0, 0, 0);"><circle class="b-outline" cx="0" cy="0" r="25" fill="#F79767" stroke="#f36924" stroke-width="2px"/><text class="caption" text-anchor="middle" pointer-events="none" x="0" y="5" font-size="10px" fill="#FFFFFF" font-family="Helvetica Neue, Helvetica, Arial, sans-serif"> Auditori…</text></g><g class="node" aria-label="graph-node4" transform="translate(-95.4830578606164,-22.68990446319036)" style="touch-action: none; -webkit-tap-highlight-color: rgba(0, 0, 0, 0);"><circle class="b-outline" cx="0" cy="0" r="25" fill="#C990C0" stroke="#b261a5" stroke-width="2px"/><text class="caption" text-anchor="middle" pointer-events="none" x="0" y="5" font-size="10px" fill="#FFFFFF" font-family="Helvetica Neue, Helvetica, Arial, sans-serif"> IT</text></g><g class="node" aria-label="graph-node5" transform="translate(-192.73641767538717,-39.37351605387613)" style="touch-action: none; -webkit-tap-highlight-color: rgba(0, 0, 0, 0);"><circle class="b-outline" cx="0" cy="0" r="25" fill="#C990C0" stroke="#b261a5" stroke-width="2px"/><text class="caption" text-anchor="middle" pointer-events="none" x="0" y="5" font-size="10px" fill="#FFFFFF" font-family="Helvetica Neue, Helvetica, Arial, sans-serif"> Sales</text></g><g class="node" aria-label="graph-node6" transform="translate(260.824472916998,-86.83021764935559)" style="touch-action: none; -webkit-tap-highlight-color: rgba(0, 0, 0, 0);"><circle class="b-outline" cx="0" cy="0" r="25" fill="#C990C0" stroke="#b261a5" stroke-width="2px"/><text class="caption" text-anchor="middle" pointer-events="none" x="0" y="5" font-size="10px" fill="#FFFFFF" font-family="Helvetica Neue, Helvetica, Arial, sans-serif"> Administ…</text></g><g class="node" aria-label="graph-node7" transform="translate(51.43250179893007,-204.36337224529223)" style="touch-action: none; -webkit-tap-highlight-color: rgba(0, 0, 0, 0);"><circle class="b-outline" cx="0" cy="0" r="25" fill="#C990C0" stroke="#b261a5" stroke-width="2px"/><text class="caption" text-anchor="middle" pointer-events="none" x="0" y="5" font-size="10px" fill="#FFFFFF" font-family="Helvetica Neue, Helvetica, Arial, sans-serif"> Operatio…</text></g><g class="node" aria-label="graph-node13" transform="translate(-192.15324262673812,84.90776972861057)" style="touch-action: none; -webkit-tap-highlight-color: rgba(0, 0, 0, 0);"><circle class="b-outline" cx="0" cy="0" r="25" fill="#57C7E3" stroke="#23b3d7" stroke-width="2px"/><text class="caption" text-anchor="middle" pointer-events="none" x="0" y="5" font-size="10px" fill="#2A2C34" font-family="Helvetica Neue, Helvetica, Arial, sans-serif"> Modesto</text></g><g class="node" aria-label="graph-node14" transform="translate(-165.5095604677324,180.39453985835704)" style="touch-action: none; -webkit-tap-highlight-color: rgba(0, 0, 0, 0);"><circle class="b-outline" cx="0" cy="0" r="25" fill="#57C7E3" stroke="#23b3d7" stroke-width="2px"/><text class="caption" text-anchor="middle" pointer-events="none" x="0" y="5" font-size="10px" fill="#2A2C34" font-family="Helvetica Neue, Helvetica, Arial, sans-serif"> Ayine</text></g><g class="node" aria-label="graph-node15" transform="translate(-22.75586212616007,43.281958600630574)" style="touch-action: none; -webkit-tap-highlight-color: rgba(0, 0, 0, 0);"><circle class="b-outline" cx="0" cy="0" r="25" fill="#57C7E3" stroke="#23b3d7" stroke-width="2px"/><text class="caption" text-anchor="middle" pointer-events="none" x="0" y="5" font-size="10px" fill="#2A2C34" font-family="Helvetica Neue, Helvetica, Arial, sans-serif"> Christop…</text></g><g class="node" aria-label="graph-node16" transform="translate(-96.08552521195688,110.15090134655293)" style="touch-action: none; -webkit-tap-highlight-color: rgba(0, 0, 0, 0);"><circle class="b-outline" cx="0" cy="0" r="25" fill="#57C7E3" stroke="#23b3d7" stroke-width="2px"/><text class="caption" text-anchor="middle" pointer-events="none" x="0" y="0" font-size="10px" fill="#2A2C34" font-family="Helvetica Neue, Helvetica, Arial, sans-serif"> Cheong</text><text class="caption" text-anchor="middle" pointer-events="none" x="0" y="10" font-size="10px" fill="#2A2C34" font-family="Helvetica Neue, Helvetica, Arial, sans-serif"> Woo</text></g><g class="node" aria-label="graph-node17" transform="translate(413.90497610060476,-100.133733386752)" style="touch-action: none; -webkit-tap-highlight-color: rgba(0, 0, 0, 0);"><circle class="b-outline" cx="0" cy="0" r="25" fill="#57C7E3" stroke="#23b3d7" stroke-width="2px"/><text class="caption" text-anchor="middle" pointer-events="none" x="0" y="5" font-size="10px" fill="#2A2C34" font-family="Helvetica Neue, Helvetica, Arial, sans-serif"> Saulat</text></g><g class="node" aria-label="graph-node18" transform="translate(-100.69003004510694,461.2922333994688)" style="touch-action: none; -webkit-tap-highlight-color: rgba(0, 0, 0, 0);"><circle class="b-outline" cx="0" cy="0" r="25" fill="#57C7E3" stroke="#23b3d7" stroke-width="2px"/><text class="caption" text-anchor="middle" pointer-events="none" x="0" y="5" font-size="10px" fill="#2A2C34" font-family="Helvetica Neue, Helvetica, Arial, sans-serif"> Heidy</text></g></g></svg>